<?xml version="1.0" standalone="no"?>
<!DOCTYPE svg PUBLIC "-//W3C//DTD SVG 20010904//EN"
 "http://www.w3.org/TR/2001/REC-SVG-20010904/DTD/svg10.dtd">
<svg version="1.0" xmlns="http://www.w3.org/2000/svg"
 width="300.000000pt" height="292.000000pt" viewBox="0 0 300.000000 292.000000"
 preserveAspectRatio="xMidYMid meet">
<metadata>
Created by potrace 1.10, written by Peter Selinger 2001-2011
</metadata>
<g transform="translate(0.000000,292.000000) scale(0.100000,-0.100000)"
fill="#000000" stroke="none">
<path d="M1379 2228 c0 -751 0 -768 7 -779 7 -11 -17 -23 -25 -12 -3 6 -36 13
-73 17 -79 8 -121 21 -168 53 l-35 25 33 -7 c18 -4 32 -3 32 3 0 5 -12 12 -27
15 -27 5 -68 -17 -68 -38 0 -5 -4 -27 -8 -48 -7 -32 -11 -37 -23 -26 -8 6 -18
9 -22 5 -9 -9 28 -38 43 -33 5 2 12 14 13 28 2 13 8 30 14 36 6 7 8 20 4 28
-3 10 1 15 13 15 29 0 44 -26 38 -63 -5 -28 -5 -29 5 -9 13 26 52 29 113 7 22
-8 55 -15 73 -15 26 0 32 -4 32 -21 0 -33 -19 -60 -56 -75 -18 -8 -41 -25 -49
-38 -15 -22 -15 -27 -1 -55 9 -16 16 -38 16 -48 0 -10 35 -50 77 -90 77 -72
101 -88 89 -57 -3 9 -6 434 -6 945 0 923 0 929 -20 929 -20 0 -20 -7 -21 -692z
m2 -935 c1 -83 -2 -157 -6 -161 -10 -10 -56 35 -79 78 -29 53 -28 85 3 95 10
3 28 17 41 30 13 14 27 25 32 25 4 0 8 -30 9 -67z"/>
<path d="M1490 2049 l0 -871 25 16 c13 9 34 16 47 16 12 0 33 11 47 24 25 23
101 43 101 26 0 -4 -17 -12 -37 -17 -26 -6 -39 -15 -42 -28 -3 -19 -3 -20 17
-2 20 18 20 18 15 -2 -3 -11 0 -35 6 -53 10 -29 9 -35 -9 -50 -18 -15 -19 -19
-6 -55 7 -21 16 -62 20 -92 9 -68 11 -72 39 -62 12 5 33 4 46 0 31 -12 34 -8
21 25 -9 26 -11 26 -27 11 -20 -21 -28 -10 -38 59 -3 27 -9 56 -11 65 -3 9 4
0 15 -19 l21 -35 -7 30 c-3 17 -12 47 -20 69 -7 21 -13 52 -13 68 0 19 -4 27
-11 22 -7 -4 -10 1 -7 11 5 30 26 28 31 -2 l4 -28 0 30 c0 17 3 47 8 68 5 25
3 42 -5 52 -14 17 -30 78 -37 147 -6 62 30 144 81 183 33 25 43 27 118 26 45
-1 80 0 77 3 -9 9 -114 16 -146 10 -48 -9 -117 -80 -133 -137 -12 -45 -9 -183
5 -239 7 -26 5 -28 -22 -28 -17 0 -42 -9 -57 -21 -14 -11 -36 -19 -48 -17
l-23 3 -3 833 c-2 824 -2 832 -22 832 -20 0 -20 -8 -20 -871z"/>
<path d="M350 1876 c-56 -27 -96 -84 -103 -148 -8 -61 -44 -163 -66 -181 -9
-7 -36 -19 -60 -26 -50 -14 -91 -51 -91 -81 0 -37 49 -250 65 -280 20 -38 91
-109 124 -122 14 -6 91 -30 171 -53 137 -40 145 -44 148 -69 4 -33 -116 -417
-135 -432 -8 -7 -34 -15 -58 -19 -89 -13 -54 -38 40 -28 44 5 55 10 64 30 6
13 11 30 11 38 0 7 20 74 44 147 66 204 86 271 86 299 0 23 -5 26 -62 36 -77
13 -229 55 -283 77 -47 20 -113 80 -127 116 -17 43 -58 274 -51 281 5 3 40 18
80 33 69 26 72 29 88 74 9 26 21 54 25 63 5 9 12 45 16 79 4 37 12 64 20 67 8
3 14 13 14 23 0 26 79 63 117 54 15 -3 50 -20 76 -38 46 -30 48 -33 42 -66 -4
-19 -11 -62 -15 -95 -11 -80 -20 -115 -31 -115 -11 0 -11 66 0 168 5 58 4 72
-7 72 -8 0 -26 8 -40 18 -29 20 -62 34 -62 26 0 -2 11 -9 25 -14 24 -9 35 -30
15 -30 -5 0 -10 -9 -10 -20 0 -22 20 -26 49 -11 14 8 17 5 16 -14 0 -29 -65
-102 -98 -110 -14 -4 -30 -18 -36 -34 -16 -37 -29 -197 -18 -217 5 -8 6 -27 2
-41 -7 -30 20 -78 38 -66 16 10 119 13 132 4 12 -9 62 -7 72 2 3 4 31 7 62 8
31 1 67 4 81 8 17 5 37 1 60 -11 25 -13 46 -17 75 -13 22 4 47 7 55 8 28 4 41
18 32 34 -10 17 17 132 47 203 11 25 22 54 26 65 5 16 8 17 16 5 9 -12 10 -12
5 3 -4 11 2 29 14 44 15 20 17 28 8 43 -11 17 -13 15 -30 -13 -10 -18 -25 -48
-34 -67 -9 -19 -26 -57 -39 -85 -12 -27 -28 -74 -34 -103 -6 -30 -16 -62 -21
-72 -15 -27 -69 -35 -114 -16 -31 13 -54 14 -142 5 -58 -5 -109 -10 -112 -10
-31 -5 -140 3 -151 10 -11 7 -14 37 -15 125 0 111 1 117 24 140 36 35 64 37
68 6 4 -29 29 -60 49 -60 26 0 51 61 63 155 10 82 9 97 -5 118 -22 33 -81 71
-131 84 -34 8 -47 7 -84 -11z"/>
<path d="M327 1794 c-10 -11 3 -24 22 -24 15 0 19 -9 20 -57 1 -58 11 -90 11
-36 0 17 7 47 15 66 14 34 14 37 -4 47 -22 11 -54 13 -64 4z"/>
<path d="M2007 1663 c17 -10 48 -38 67 -63 31 -38 36 -53 36 -97 0 -30 -5 -53
-12 -55 -9 -3 -8 -19 1 -65 14 -62 8 -98 -11 -72 -8 11 -9 10 -4 -3 3 -10 1
-20 -4 -23 -7 -4 -60 -110 -60 -120 0 -2 20 -9 45 -16 47 -14 55 -23 112 -127
12 -24 23 -53 23 -66 0 -12 7 -31 15 -42 8 -10 15 -29 15 -40 0 -12 7 -27 15
-34 8 -7 15 -18 15 -25 0 -8 4 -15 9 -17 8 -3 -25 -217 -35 -227 -2 -2 -13 4
-24 14 -19 18 -20 17 -20 -3 0 -31 -16 -35 -37 -9 -30 38 -49 43 -20 5 30 -39
35 -60 12 -52 -19 8 -19 -10 0 -26 12 -10 16 -9 21 4 3 9 12 16 19 16 8 0 11
8 8 20 -4 16 0 20 19 20 21 0 24 -4 20 -28 -2 -19 -13 -33 -30 -40 -25 -11
-25 -11 -3 -7 23 4 23 2 18 -43 l-6 -47 20 44 c10 24 22 62 25 85 3 22 14 83
25 133 21 103 26 198 8 173 -8 -12 -9 -10 -7 10 1 14 -6 37 -15 51 -9 14 -24
48 -32 75 -24 81 -85 176 -128 199 -42 23 -42 33 4 106 29 45 29 49 19 110 -5
35 -10 89 -10 120 0 43 -6 65 -28 100 -34 53 -48 64 -87 73 l-30 6 32 -17z"/>
<path d="M1270 1590 c-12 -7 -12 -12 -2 -22 6 -6 12 -8 12 -2 0 5 5 2 10 -6 8
-11 9 -9 8 13 -3 29 -6 31 -28 17z"/>
<path d="M1026 1535 c3 -15 -1 -35 -8 -44 -7 -9 -3 -6 10 7 26 27 27 35 8 52
-13 10 -14 7 -10 -15z"/>
<path d="M253 1494 l-22 -34 28 0 c33 0 44 9 32 24 -5 6 -10 18 -12 27 -3 12
-10 7 -26 -17z"/>
<path d="M1950 1445 c0 -21 5 -25 30 -25 17 0 30 5 30 10 0 6 1 13 3 17 1 3
-6 7 -15 9 -11 1 -18 -4 -19 -14 0 -12 -3 -10 -9 6 -12 29 -20 28 -20 -3z"/>
<path d="M1816 1413 c-5 -12 -9 -14 -18 -5 -7 7 -21 12 -32 12 -19 -1 -19 -1
-3 -11 9 -5 17 -17 17 -24 0 -9 9 -15 22 -15 12 0 42 -14 68 -30 40 -26 47
-35 44 -58 -2 -17 -1 -19 2 -7 10 34 25 45 60 45 21 0 37 -6 43 -17 6 -11 11
-13 11 -5 0 7 15 19 33 27 18 8 25 14 15 15 -10 0 -18 3 -18 6 0 4 8 13 18 20
9 7 12 14 6 14 -16 0 -54 -39 -55 -58 0 -10 -3 -12 -6 -4 -2 6 -11 12 -19 12
-8 0 -14 5 -14 10 0 6 5 10 12 10 20 0 -4 17 -34 24 -17 4 -28 2 -28 -4 0 -5
9 -10 20 -10 22 0 28 -19 8 -21 -40 -5 -87 5 -116 23 -27 17 -32 25 -28 44 7
27 1 32 -8 7z"/>
<path d="M1278 1381 c-24 -25 -25 -28 -8 -24 11 3 20 10 20 15 0 5 5 6 12 2 7
-5 8 -3 3 6 -4 7 -2 16 6 21 8 5 9 9 4 9 -6 0 -22 -13 -37 -29z"/>
<path d="M198 1383 c-8 -10 -18 -24 -23 -31 -11 -20 25 0 49 27 15 17 16 21 4
21 -8 0 -22 -8 -30 -17z"/>
<path d="M187 1292 c-21 -23 -22 -42 -2 -42 8 0 15 6 15 14 0 8 7 17 16 20 8
3 12 10 9 16 -9 15 -20 12 -38 -8z"/>
<path d="M1990 1295 c0 -9 -11 -20 -24 -27 -22 -9 -23 -13 -10 -25 7 -8 24
-12 36 -10 l23 4 -22 2 c-24 1 -30 15 -13 26 16 10 32 45 20 45 -5 0 -10 -7
-10 -15z"/>
<path d="M990 1249 c0 -24 37 -104 55 -119 27 -23 149 42 177 93 17 32 2 29
-38 -9 -21 -20 -54 -43 -73 -51 -32 -14 -35 -13 -62 13 -15 14 -35 41 -43 58
-9 17 -16 24 -16 15z"/>
<path d="M228 1233 c-24 -4 -56 -29 -47 -37 2 -2 27 7 54 19 49 23 48 26 -7
18z"/>
<path d="M455 1173 c18 -43 35 -64 35 -44 0 14 -38 81 -46 81 -2 0 3 -17 11
-37z"/>
<path d="M860 1202 c0 -22 83 -42 95 -22 4 6 -7 10 -25 10 -17 0 -40 5 -51 10
-10 6 -19 7 -19 2z"/>
<path d="M511 1146 c13 -45 46 -126 53 -126 7 0 -43 143 -54 154 -5 5 -5 -6 1
-28z"/>
<path d="M594 1088 c0 -57 2 -81 6 -61 10 46 12 153 2 153 -4 0 -7 -42 -8 -92z"/>
<path d="M269 1151 c-13 -10 -31 -20 -38 -23 -13 -4 -12 -5 1 -10 10 -4 26 4
44 23 32 33 28 38 -7 10z"/>
<path d="M1836 1158 c4 -7 16 -19 26 -26 10 -7 16 -18 13 -23 -3 -5 1 -6 9 -3
24 9 19 20 -20 43 -19 12 -32 15 -28 9z"/>
<path d="M994 1134 c3 -9 9 -28 13 -42 l7 -27 6 25 c6 25 -7 60 -23 60 -5 0
-6 -7 -3 -16z"/>
<path d="M1490 792 l0 -360 55 -4 c66 -4 72 4 13 18 -44 9 -45 11 -36 69 1 6
-2 37 -6 71 -6 57 -5 61 16 72 21 11 21 11 -6 5 -20 -4 -27 -3 -22 6 4 6 15
11 24 12 11 0 9 4 -8 10 -19 8 -21 12 -11 19 8 4 21 6 29 2 10 -3 13 -1 8 6
-4 7 -13 12 -19 12 -7 0 -13 20 -14 51 l-3 51 26 -17 c38 -25 40 -12 2 20 -30
25 -37 45 -14 37 5 -2 5 3 0 10 -6 7 -11 36 -12 63 l-2 50 19 -34 c14 -27 19
-30 24 -17 4 9 3 15 -2 12 -4 -3 -15 12 -24 34 -11 28 -11 37 -2 34 16 -6 53
-57 65 -89 11 -30 30 -33 30 -5 0 12 -23 42 -56 72 -52 49 -55 54 -49 88 5 27
2 40 -9 50 -14 11 -16 -23 -16 -348z"/>
<path d="M968 1069 c15 -28 28 -46 30 -41 3 10 -44 92 -52 92 -2 0 8 -23 22
-51z"/>
<path d="M1090 1111 c-15 -6 -24 -41 -10 -41 11 0 32 28 28 38 -1 5 -10 7 -18
3z"/>
<path d="M1196 1106 c4 -9 1 -16 -6 -16 -7 0 -32 -14 -57 -30 -24 -17 -57 -37
-73 -45 -30 -16 -80 -64 -80 -78 0 -10 52 24 63 40 4 7 17 13 29 13 11 0 38
19 60 43 21 23 44 41 49 39 10 -2 40 -8 84 -14 14 -2 21 3 23 18 2 17 -3 23
-25 27 -15 3 -38 8 -51 12 -18 6 -21 4 -16 -9z"/>
<path d="M1730 1110 c0 -8 11 -31 23 -50 20 -32 26 -35 68 -34 25 0 50 4 56 7
6 4 13 -6 17 -24 8 -44 8 -49 -7 -49 -7 0 -18 -14 -24 -31 -11 -27 -15 -30
-28 -19 -8 7 -15 9 -16 4 0 -5 -4 0 -9 11 -8 19 -9 19 -9 -2 -1 -13 4 -23 9
-23 6 0 10 -10 9 -22 -4 -39 1 -59 11 -53 5 3 16 -8 25 -26 9 -17 12 -28 6
-25 -12 8 -13 -43 -2 -84 5 -19 9 -11 19 41 15 84 15 89 -3 89 -11 0 -14 10
-12 43 2 35 6 42 22 42 17 0 21 9 27 55 3 30 9 78 12 105 l7 50 -26 -32 c-19
-24 -35 -33 -56 -33 -37 0 -83 23 -103 52 -11 15 -16 17 -16 8z"/>
<path d="M1990 1110 c-11 -7 -7 -16 21 -48 19 -21 39 -47 46 -58 10 -16 11
-14 6 16 -3 19 -10 37 -15 38 -4 2 -6 7 -3 11 8 15 -39 51 -55 41z"/>
<path d="M1940 1059 c0 -49 -10 -127 -26 -197 -3 -15 -1 -21 6 -17 5 3 10 -1
10 -9 0 -9 -4 -16 -9 -16 -5 0 -14 -30 -20 -67 -7 -38 -14 -76 -16 -86 -2 -9
1 -15 5 -12 5 3 13 27 19 53 5 26 14 58 18 70 13 35 29 9 37 -60 6 -53 5 -60
-19 -83 -14 -14 -25 -31 -25 -38 0 -9 -3 -8 -9 1 -4 7 -18 14 -30 15 -13 1
-23 9 -26 22 -2 11 -8 38 -13 60 -9 37 -10 38 -11 10 -3 -67 -10 -77 -55 -73
-61 5 -85 33 -79 92 3 26 9 42 13 36 5 -8 10 -3 14 13 9 37 45 39 79 5 l27
-28 -6 27 c-9 38 -13 43 -30 43 -8 0 -14 9 -14 21 0 12 -4 17 -11 14 -6 -4 -8
-14 -5 -22 5 -12 -1 -14 -34 -11 -23 2 -41 -1 -41 -7 -1 -5 -5 8 -9 30 -7 36
-7 34 -9 -25 -1 -36 -7 -93 -14 -127 l-14 -63 31 -9 c32 -9 116 -26 176 -36
19 -3 46 -8 60 -11 19 -4 32 2 54 25 17 17 35 31 42 31 6 0 18 7 25 16 12 15
11 16 -7 10 -24 -7 -26 -1 -40 117 -5 47 -10 57 -25 57 -23 0 -23 4 -3 36 15
22 15 24 0 18 -9 -3 -16 -1 -16 5 0 7 7 14 16 18 14 5 15 18 9 92 -8 103 -24
142 -25 60z"/>
<path d="M2695 949 c-44 -5 -107 -15 -140 -23 -33 -9 -69 -18 -80 -20 -28 -7
56 1 145 14 86 12 175 22 207 22 13 0 20 4 17 9 -6 10 -35 10 -149 -2z"/>
<path d="M1557 926 c-4 -10 -3 -15 3 -11 6 4 10 -10 11 -32 1 -21 5 -49 10
-63 6 -17 7 -7 4 34 -6 68 -18 98 -28 72z"/>
<path d="M1330 927 c0 -2 8 -21 19 -41 15 -33 19 -36 23 -18 6 21 -16 62 -33
62 -5 0 -9 -1 -9 -3z"/>
<path d="M2780 922 c-33 -3 -69 -22 -42 -22 7 0 12 -6 12 -14 0 -17 27 -28 51
-21 31 10 22 22 -12 17 -24 -4 -30 -1 -27 9 3 8 20 16 39 19 43 7 26 17 -21
12z"/>
<path d="M2844 835 c0 -58 -4 -99 -10 -103 -6 -4 -14 -20 -17 -37 -4 -16 -9
-40 -13 -52 -4 -16 -2 -23 8 -23 23 0 37 -40 35 -101 -1 -35 4 -63 12 -73 21
-25 6 -30 -44 -16 -52 15 -59 22 -50 51 6 17 12 20 37 15 18 -3 27 -2 23 4 -3
6 -15 10 -27 10 -19 0 -20 4 -14 53 7 48 6 50 -8 32 -8 -11 -21 -46 -27 -77
-8 -42 -17 -59 -31 -64 -11 -3 -22 -4 -25 -1 -2 3 -19 -1 -38 -8 -18 -8 -35
-12 -38 -9 -3 3 -11 3 -17 -1 -7 -4 -30 -9 -53 -11 -22 -1 -43 -8 -47 -15 -4
-6 -12 -9 -17 -6 -5 3 -29 -1 -53 -9 -25 -9 -58 -16 -75 -16 -39 0 -65 -7 -65
-18 0 -18 50 -18 130 0 304 70 306 71 380 58 l70 -12 0 -48 c0 -26 -3 -48 -7
-48 -14 0 -328 -41 -350 -46 -15 -3 -20 -9 -16 -19 4 -12 9 -13 18 -5 10 8 15
8 20 0 5 -8 13 -6 26 6 11 9 19 12 19 6 0 -6 7 -9 15 -6 8 4 15 1 15 -4 0 -6
-8 -13 -17 -15 -11 -3 -9 -5 7 -5 14 0 39 4 55 8 l30 8 -34 1 c-48 1 -32 12
24 16 37 2 43 1 30 -9 -13 -9 -6 -11 35 -10 28 1 54 5 57 8 4 3 22 6 42 6 29
1 33 2 18 11 -9 5 -22 7 -29 3 -7 -4 -8 -3 -4 4 4 7 17 12 30 12 36 0 49 37
43 117 -11 123 -24 192 -45 224 -19 31 -19 32 0 108 15 57 18 92 13 139 -4 34
-10 62 -14 62 -4 0 -7 -43 -7 -95z"/>
<path d="M1716 870 c6 -22 5 -23 -10 -11 -14 12 -16 11 -16 -3 0 -11 8 -15 24
-14 16 2 22 7 18 17 -3 9 -1 12 6 7 7 -4 12 -3 12 3 0 5 -4 13 -10 16 -5 3
-10 0 -10 -7 0 -10 -3 -9 -11 2 -8 11 -9 9 -3 -10z"/>
<path d="M2100 844 c0 -44 1 -46 14 -28 8 11 10 21 5 25 -5 3 -7 13 -4 21 4 9
2 19 -4 23 -7 4 -11 -10 -11 -41z"/>
<path d="M1600 835 c0 -14 -5 -45 -12 -69 -10 -38 -9 -48 5 -70 9 -14 17 -32
17 -41 0 -8 4 -15 10 -15 8 0 5 21 -8 44 -3 5 -4 46 -3 92 1 46 0 84 -3 84 -3
0 -6 -11 -6 -25z"/>
<path d="M1328 833 c-8 -10 -21 -45 -28 -78 -7 -33 -21 -78 -32 -99 -15 -30
-21 -62 -22 -128 -1 -89 7 -107 32 -68 9 14 23 20 49 20 49 0 31 18 -22 22
-37 3 -40 6 -43 35 -3 32 42 197 61 221 5 7 7 15 4 19 -3 3 1 19 9 35 18 35
14 46 -8 21z"/>
<path d="M1402 837 c-12 -14 -12 -58 -1 -51 4 2 10 -8 12 -23 2 -16 5 -2 6 30
1 61 0 64 -17 44z"/>
<path d="M1128 803 c-21 -5 -23 -24 -6 -41 7 -7 11 -33 10 -60 l-3 -47 36 38
c20 21 39 36 43 33 5 -3 14 -1 22 5 9 5 10 9 3 9 -6 0 -9 8 -6 18 3 13 -6 21
-34 32 -49 19 -45 18 -65 13z m50 -48 c-1 -36 -28 -59 -28 -25 0 11 5 20 10
20 6 0 10 7 10 15 0 8 -5 15 -11 15 -5 0 -7 -5 -3 -12 4 -7 3 -8 -4 -4 -16 9
-3 36 13 29 9 -3 14 -18 13 -38z"/>
<path d="M2094 718 c-4 -32 -10 -56 -13 -53 -4 2 -13 0 -20 -4 -8 -5 5 -11 35
-16 27 -4 55 -11 61 -17 10 -8 12 -4 11 16 -2 27 -12 34 -23 16 -3 -5 -13 -10
-22 -10 -13 0 -13 3 -3 15 10 12 10 19 2 27 -7 7 -12 25 -12 40 0 21 5 28 19
28 11 0 22 4 25 9 3 4 -8 8 -24 7 -28 -1 -30 -3 -36 -58z"/>
<path d="M2213 678 c-11 -13 -24 -34 -27 -48 -6 -23 -6 -23 5 -5 7 11 21 32
31 48 23 33 19 35 -9 5z"/>
<path d="M994 636 c3 -10 11 -38 17 -62 10 -37 29 -70 29 -49 0 16 -34 111
-43 120 -7 7 -8 4 -3 -9z"/>
<path d="M1405 588 c-4 -18 -8 -35 -9 -38 -1 -3 -5 -11 -9 -17 -6 -9 -2 -13
12 -13 18 0 21 6 21 50 0 58 -4 63 -15 18z"/>
<path d="M2020 576 c0 -2 16 -14 35 -26 19 -12 33 -25 31 -29 -3 -3 3 -16 12
-26 22 -27 67 -63 58 -47 -4 6 -2 12 3 12 6 0 11 5 11 10 0 6 -11 10 -25 10
-25 0 -46 26 -38 47 2 7 -10 22 -29 33 -30 18 -58 26 -58 16z"/>
<path d="M1725 554 c-46 -17 -98 -54 -75 -53 8 0 44 15 80 34 67 35 65 44 -5
19z"/>
<path d="M1822 532 c-22 -30 -35 -89 -22 -97 20 -12 5 -43 -22 -47 -16 -3 -24
0 -21 6 4 5 -1 7 -11 3 -11 -4 -15 -3 -11 4 4 6 -1 9 -11 7 -11 -2 -18 2 -16
10 1 6 -2 13 -8 13 -5 1 -14 2 -20 3 -5 0 -10 6 -10 11 0 6 5 10 10 9 6 -1 25
-2 43 -3 26 -2 28 -4 13 -10 -18 -7 -18 -8 -2 -14 29 -12 56 -8 50 6 -8 21
-72 40 -109 33 -34 -7 -58 -26 -33 -26 7 0 -2 -9 -19 -20 -49 -29 -34 -47 45
-55 37 -4 72 -8 77 -9 6 -2 22 1 38 5 38 11 34 3 -13 -21 -43 -22 -52 -40 -20
-40 11 0 29 -5 39 -12 27 -16 246 21 246 42 0 20 -71 18 -180 -4 -109 -21
-130 -20 -81 5 23 13 43 32 49 50 9 24 17 29 42 27 16 -1 35 -5 40 -9 6 -4 26
-10 45 -14 19 -4 75 -20 125 -37 64 -22 112 -31 165 -32 61 -2 70 0 48 8 -34
12 -36 29 -5 51 l22 16 -25 -3 c-14 -2 -25 -8 -25 -15 0 -6 -3 -15 -7 -19 -5
-4 -8 -2 -8 4 0 7 -7 12 -15 12 -8 0 -15 -6 -15 -14 0 -12 -7 -12 -47 0 -27 8
-59 12 -71 9 -15 -4 -21 -2 -17 5 4 6 -7 10 -27 10 -18 1 -44 7 -58 15 -23 13
-20 14 40 9 49 -4 61 -3 50 5 -13 10 -13 13 4 26 16 12 17 16 3 35 -8 12 -23
27 -34 34 -56 39 -73 47 -73 37 0 -6 5 -11 10 -11 6 0 20 -9 32 -20 12 -11 27
-20 34 -20 17 0 25 -40 9 -46 -7 -3 -22 -1 -33 5 -14 8 -29 7 -51 0 -18 -6
-45 -9 -61 -7 -19 3 -31 0 -35 -10 -6 -16 -31 -10 -27 7 1 6 -7 11 -18 11 -27
0 -27 48 1 84 11 14 16 26 10 26 -5 0 -19 -12 -29 -28z"/>
<path d="M750 459 l-35 -6 43 -2 c26 0 41 -5 37 -11 -3 -6 -45 -9 -93 -9 -65
1 -79 3 -57 10 33 9 -13 6 -130 -7 -53 -6 -57 -8 -31 -15 17 -5 37 -4 47 1 14
8 26 2 55 -25 38 -36 56 -47 34 -20 -18 22 -10 26 57 32 32 2 60 6 62 8 1 2
13 0 26 -5 14 -6 27 -4 34 3 8 8 65 12 171 12 88 1 163 4 167 8 15 16 -10 19
-82 10 -74 -9 -211 -1 -250 15 -11 4 -36 5 -55 1z"/>
<path d="M1375 430 c-3 -5 -25 -10 -48 -10 -38 -1 -44 -4 -58 -35 -9 -19 -15
-35 -12 -35 2 0 34 18 71 40 36 22 72 38 79 36 7 -3 13 -1 13 4 0 13 -37 13
-45 0z"/>
<path d="M2133 423 c-13 -2 -23 -11 -23 -19 0 -18 26 -18 37 0 4 7 15 16 23
19 13 5 13 5 0 5 -8 0 -25 -3 -37 -5z"/>
<path d="M286 406 c3 -7 16 -19 29 -26 14 -7 27 -21 30 -31 3 -9 -12 -82 -35
-161 -22 -80 -40 -154 -40 -166 0 -39 28 -24 38 21 5 23 26 98 47 167 53 180
54 162 -7 188 -62 26 -69 27 -62 8z"/>
<path d="M1490 382 c0 -38 5 -45 75 -109 41 -37 83 -68 93 -68 9 0 16 -5 15
-12 -2 -7 4 -10 12 -7 11 5 13 2 9 -9 -5 -13 1 -15 33 -10 21 3 39 6 40 7 1 1
-33 30 -75 66 -42 36 -104 91 -139 124 l-63 58 0 -40z"/>
<path d="M1408 373 c-2 -24 -7 -28 -30 -26 -32 2 -37 -13 -8 -22 11 -3 20 -11
20 -16 0 -5 7 -9 15 -9 11 0 15 12 15 50 0 54 -7 67 -12 23z"/>
<path d="M671 373 c8 -10 18 -21 24 -25 6 -4 2 -14 -10 -23 -20 -16 -20 -16 1
-6 11 5 26 16 33 24 9 12 7 16 -14 21 -14 4 -25 11 -25 16 0 6 -5 10 -11 10
-8 0 -7 -6 2 -17z"/>
<path d="M1267 303 c5 -30 3 -33 -21 -33 -29 0 -33 -11 -12 -29 11 -9 18 -6
34 16 l20 28 -1 -45 c-2 -39 -5 -45 -25 -48 -17 -3 -22 -8 -18 -19 5 -13 -2
-15 -46 -11 -29 3 -54 11 -56 17 -2 6 -10 11 -17 11 -8 0 -17 5 -21 11 -4 7 1
9 17 5 19 -4 18 -3 -3 6 -16 7 -28 18 -28 26 0 8 -6 12 -12 9 -7 -2 -22 0 -33
5 -13 5 4 7 47 4 38 -2 65 0 62 5 -3 5 -31 9 -63 9 -31 0 -62 5 -69 10 -6 6
-10 7 -7 4 3 -4 0 -13 -6 -20 -8 -10 -1 -19 31 -39 22 -14 44 -33 47 -41 9
-25 82 -57 115 -50 35 7 98 53 98 72 0 8 5 14 10 14 21 0 9 47 -20 80 l-29 35
6 -32z"/>
<path d="M1170 309 c0 -5 5 -7 10 -4 6 3 10 -1 10 -9 0 -10 -6 -13 -15 -10 -8
4 -15 1 -15 -5 0 -6 11 -11 25 -11 14 0 25 4 25 9 0 5 3 16 6 25 5 12 0 16
-20 16 -14 0 -26 -5 -26 -11z"/>
<path d="M1491 163 c-1 -157 0 -163 19 -163 18 0 20 7 21 75 2 116 4 119 48
74 31 -31 32 -36 13 -89 -3 -8 8 1 26 21 18 20 32 41 32 46 0 5 -29 37 -65 72
-36 34 -72 76 -79 94 -13 29 -14 18 -15 -130z"/>
<path d="M1410 280 c0 -6 -15 -20 -34 -31 -19 -11 -37 -31 -40 -45 -4 -15 -20
-37 -36 -51 -28 -23 -30 -30 -30 -89 0 -48 3 -64 14 -64 18 0 26 22 26 76 0
37 6 51 35 82 l34 37 1 -66 c0 -85 9 -129 26 -129 10 0 14 32 16 141 2 78 0
143 -4 146 -5 2 -8 -1 -8 -7z"/>
<path d="M710 256 c0 -3 16 -22 35 -40 30 -29 34 -31 31 -13 -1 12 -9 23 -17
25 -8 3 -22 11 -31 20 -10 8 -18 12 -18 8z"/>
<path d="M2305 239 c-209 -29 -453 -60 -491 -61 -35 -1 -43 -15 -22 -36 20
-20 -3 -31 -74 -34 -37 -1 -64 -6 -61 -10 2 -5 -3 -21 -13 -36 -13 -20 -14
-24 -2 -15 20 17 70 21 76 5 2 -6 11 -20 20 -30 9 -10 14 -13 11 -7 -14 23
-15 74 -2 79 7 3 13 -1 13 -9 0 -8 5 -15 11 -15 13 0 69 58 66 67 -2 6 300 51
441 66 29 3 59 11 67 17 9 8 15 8 20 0 6 -10 22 -8 63 7 6 3 12 1 12 -5 0 -5
-39 -15 -87 -22 -49 -6 -101 -15 -117 -19 l-29 -7 64 -67 c35 -36 72 -77 81
-89 17 -23 17 -23 6 11 -6 19 -35 58 -64 86 -46 46 -50 54 -33 58 14 4 24 -3
35 -21 l15 -27 -4 26 c-4 25 -1 26 72 38 42 6 86 11 99 11 25 0 30 -18 7 -26
-8 -4 -12 -10 -9 -16 9 -13 34 11 34 33 0 15 7 19 31 19 16 0 28 4 25 9 -3 5
-16 7 -28 3 -16 -4 -19 -2 -13 9 7 11 5 11 -9 -1 -16 -13 -20 -12 -36 8 -10
12 -24 21 -32 21 -7 -1 -71 -10 -143 -20z"/>
<path d="M2761 218 c-1 -14 -10 -15 -58 -11 -32 2 -83 -1 -115 -9 -55 -13 -54
-13 83 -13 76 0 139 3 139 8 0 4 -9 7 -19 7 -11 0 -22 8 -24 18 -4 15 -5 15
-6 0z"/>
<path d="M2348 143 c-17 -19 -19 -23 -5 -23 8 0 17 8 19 17 3 15 4 15 19 1 14
-14 17 -13 35 7 l21 23 -34 -1 c-21 -1 -41 -9 -55 -24z"/>
</g>
</svg>
