<?xml version="1.0" standalone="no"?>
<!DOCTYPE svg PUBLIC "-//W3C//DTD SVG 20010904//EN"
 "http://www.w3.org/TR/2001/REC-SVG-20010904/DTD/svg10.dtd">
<svg version="1.0" xmlns="http://www.w3.org/2000/svg"
 width="300.000000pt" height="300.000000pt" viewBox="0 0 300.000000 300.000000"
 preserveAspectRatio="xMidYMid meet">
<metadata>
Created by potrace 1.10, written by Peter Selinger 2001-2011
</metadata>
<g transform="translate(0.000000,300.000000) scale(0.100000,-0.100000)"
fill="#000000" stroke="none">
<path d="M1446 2659 c-5 -13 -66 -347 -66 -359 0 -3 -28 -5 -61 -5 -59 0 -63
-2 -96 -40 -20 -22 -44 -58 -54 -80 -16 -36 -21 -39 -52 -37 -25 3 -42 -4 -67
-25 -23 -19 -46 -28 -70 -29 -31 0 -39 4 -49 28 -19 43 -65 63 -112 49 -53
-16 -82 -56 -76 -103 l5 -37 -82 -3 c-67 -2 -91 1 -141 21 -80 33 -217 41
-279 17 -52 -20 -76 -61 -58 -100 24 -54 124 -101 187 -88 14 2 44 -3 66 -13
39 -18 39 -18 39 -76 0 -54 15 -109 30 -109 3 0 19 27 35 60 35 74 41 79 82
73 31 -5 33 -8 33 -45 0 -38 23 -98 38 -98 4 0 21 33 37 72 l30 71 108 19 c59
10 132 24 161 32 l53 13 -69 -68 c-39 -38 -68 -74 -65 -81 2 -7 -16 -34 -40
-61 -51 -54 -82 -118 -83 -164 0 -26 3 -31 17 -26 9 4 -7 -22 -35 -58 -54 -67
-130 -199 -114 -199 14 0 33 26 25 34 -4 4 0 4 9 1 15 -6 12 -14 -21 -58 -80
-107 -109 -194 -110 -326 l0 -74 39 38 39 38 -6 -36 c-11 -68 16 -118 33 -60
6 25 8 23 16 -25 11 -71 39 -123 89 -166 49 -41 74 -47 64 -15 -6 18 -4 20 14
15 12 -3 30 -8 40 -11 15 -5 20 -17 23 -61 2 -31 -2 -65 -9 -77 -7 -12 -12
-16 -13 -9 0 7 -12 18 -26 24 -22 10 -27 9 -36 -5 -8 -16 -11 -16 -25 -2 -31
32 -50 2 -39 -60 8 -39 41 -56 108 -57 53 -1 126 11 133 21 2 4 -5 31 -15 60
-20 51 -27 136 -12 145 4 2 43 0 87 -5 97 -11 540 13 655 36 25 5 25 4 25 -57
0 -40 -5 -66 -12 -71 -7 -4 -13 -15 -13 -22 0 -8 -4 -15 -10 -15 -5 0 -10 4
-10 10 0 15 -43 35 -48 22 -3 -9 -9 -9 -23 -1 -15 8 -21 6 -25 -6 -8 -19 0
-113 10 -123 13 -12 199 -7 222 5 l21 12 -26 53 c-20 41 -26 68 -26 120 0 37
5 71 10 77 6 5 51 19 100 29 50 11 117 30 150 41 l60 22 30 -34 c17 -18 73
-84 125 -147 144 -172 186 -214 204 -207 22 9 20 28 -6 57 -13 14 -64 70 -113
125 -173 191 -200 226 -184 237 11 8 11 9 -3 4 -13 -4 -48 31 -140 141 -147
175 -158 191 -158 221 l0 24 31 -26 c17 -14 34 -26 39 -26 18 0 21 22 6 45
-20 30 -20 35 -1 35 8 0 27 -16 42 -35 27 -34 63 -47 63 -23 0 6 -12 27 -27
47 -16 20 -28 39 -28 43 0 20 -57 58 -92 61 l-38 4 -3 109 c-1 59 1 127 6 151
7 30 6 45 -2 52 -8 6 -11 1 -12 -17 -1 -15 -5 -63 -9 -108 -4 -44 -5 -110 -1
-146 l7 -66 42 4 c23 2 34 1 25 -2 -26 -8 -22 -22 5 -17 12 2 31 -3 42 -12 19
-16 18 -16 -22 -12 -49 6 -52 -1 -22 -50 30 -48 14 -55 -27 -10 -46 50 -58 48
-52 -8 6 -51 -5 -58 -25 -17 -26 51 -43 421 -23 502 5 23 5 32 -2 25 -15 -15
-32 -108 -32 -173 0 -31 6 -98 14 -147 7 -50 11 -105 9 -122 -9 -58 56 -159
235 -366 48 -55 81 -102 76 -106 -31 -29 -465 -114 -464 -91 1 3 22 29 49 58
44 50 53 55 127 72 76 18 154 46 154 55 0 2 -33 -7 -72 -21 -40 -13 -97 -27
-128 -31 l-54 -6 16 25 c41 62 66 235 49 335 -5 32 -12 85 -16 118 -3 33 -10
85 -16 115 -15 76 -87 363 -99 396 -6 15 -8 29 -5 32 2 3 0 10 -5 17 -5 7 -16
43 -24 81 -23 108 -36 158 -47 168 -18 19 -8 -34 47 -250 32 -121 74 -286 96
-369 83 -323 71 -549 -36 -711 -65 -97 -74 -100 -291 -114 -221 -15 -389 -8
-495 20 -91 24 -96 24 -80 5 23 -27 3 -27 -29 1 -47 40 -83 117 -86 187 -1 31
-5 60 -9 64 -3 3 -6 0 -6 -8 0 -8 -10 -25 -21 -39 l-20 -25 6 50 c3 28 13 55
21 61 8 6 14 14 14 18 0 14 -20 4 -64 -35 l-47 -42 7 29 c3 16 17 49 30 73 27
48 27 51 16 51 -5 0 -16 -15 -25 -32 l-16 -33 0 31 c-2 57 32 137 97 233 59
87 61 93 36 87 -21 -6 -25 -4 -21 9 22 55 143 202 196 238 43 29 12 33 -40 5
-58 -31 -60 -24 -19 59 27 55 101 135 155 171 18 11 16 12 -15 7 l-35 -6 68
65 c66 63 72 66 197 106 72 22 136 43 144 46 11 4 13 -2 9 -33 -7 -57 14 -147
42 -177 48 -52 145 -25 145 42 0 15 -9 54 -19 87 -10 33 -21 76 -25 95 l-6 35
86 28 c94 31 120 26 111 -20 -5 -29 9 -40 18 -14 13 41 -31 81 -88 81 -15 0
-18 -3 -9 -9 8 -5 -66 -34 -205 -79 -420 -137 -548 -166 -753 -166 -129 -1
-151 2 -203 23 l-58 23 63 30 c68 32 108 63 108 85 0 8 13 13 38 13 42 0 249
34 302 50 59 17 67 14 74 -30 5 -31 14 -45 39 -60 31 -20 90 -26 122 -14 24 9
48 62 40 91 -5 23 -4 24 28 18 59 -11 147 37 147 80 0 12 10 41 22 66 l22 44
6 -37 c9 -48 31 -73 86 -94 79 -30 176 -5 205 54 l17 32 60 -45 c106 -80 204
-200 271 -332 17 -34 31 -64 31 -66 0 -3 -20 -2 -45 1 -50 5 -57 -4 -24 -34
12 -10 30 -32 41 -47 l20 -28 -29 7 -28 7 27 -22 c69 -55 198 -348 223 -507
l6 -42 -47 24 c-25 13 -53 32 -60 41 -20 26 -17 3 4 -32 31 -51 62 -137 72
-200 12 -71 -5 -214 -23 -196 -6 6 -18 11 -26 11 -12 0 -11 -3 2 -18 10 -10
17 -24 17 -30 0 -7 4 -12 9 -12 11 0 28 49 37 107 6 39 9 42 80 78 111 54 191
140 253 268 87 179 118 366 108 652 -7 204 -32 316 -101 458 -68 136 -223 338
-189 245 4 -13 8 -59 8 -103 0 -89 -25 -156 -89 -244 -57 -78 -77 -128 -83
-205 -5 -65 -2 -82 36 -191 22 -66 45 -153 51 -194 13 -96 -1 -215 -36 -290
l-26 -56 -23 80 c-29 99 -63 175 -114 260 -22 36 -35 65 -30 65 13 0 -16 53
-51 94 -17 18 -30 36 -30 39 0 4 19 0 42 -9 22 -8 43 -12 46 -9 10 10 -99 214
-146 271 l-50 61 24 234 c13 129 26 246 28 262 6 31 -7 36 -20 8 -25 -54 -220
-350 -229 -347 -5 1 -13 24 -17 50 -10 73 -70 122 -138 114 -12 -2 -25 2 -27
9 -3 7 4 10 19 6 20 -4 19 -1 -10 24 -18 15 -32 34 -32 41 0 17 -69 195 -80
206 -6 6 -11 4 -14 -5z m48 -116 c16 -43 31 -83 33 -89 2 -6 -8 -15 -23 -18
-30 -8 -22 -23 16 -28 35 -4 39 -41 6 -56 -14 -6 -38 -29 -53 -51 -16 -22 -35
-43 -43 -46 -16 -7 -43 23 -36 41 2 6 17 81 32 167 16 87 31 157 34 157 3 0
18 -35 34 -77z m456 -255 c-12 -117 -23 -214 -24 -215 -2 -2 -12 7 -23 20 -21
22 -21 24 -7 132 8 60 13 114 10 120 -3 9 -50 -84 -77 -154 -9 -22 -11 -22
-32 -8 -12 8 -22 18 -22 23 0 12 188 304 193 300 2 -2 -6 -100 -18 -218z m599
27 c100 -164 157 -376 137 -508 -6 -40 -11 -47 -39 -57 -18 -6 -34 -10 -36
-10 -8 3 -27 -46 -23 -59 4 -11 11 -7 28 12 12 14 24 32 27 39 5 10 9 9 17 -4
16 -26 28 -22 39 15 7 25 9 6 10 -83 2 -292 -77 -538 -217 -678 -55 -56 -169
-132 -196 -132 -3 0 -6 18 -6 39 0 44 -45 197 -60 206 -6 3 -10 11 -10 16 0
12 37 -6 67 -34 13 -11 25 -18 29 -15 3 3 0 34 -6 68 -9 51 -9 65 3 79 7 9 24
34 37 56 22 37 24 51 24 195 1 144 -1 160 -25 227 -27 72 -27 99 -4 156 8 20
25 23 25 5 0 -7 17 -37 37 -66 37 -54 146 -138 164 -126 16 9 10 34 -8 35 -30
1 -105 62 -137 111 -39 58 -69 77 -91 58 -14 -12 -18 -11 -26 1 -10 15 -6 93
7 144 10 42 104 185 121 185 8 0 12 4 9 8 -3 5 4 32 14 61 11 28 20 64 20 79
0 59 24 51 69 -23z m-889 30 c36 -19 50 -43 50 -88 0 -86 -145 -130 -200 -60
-32 40 -26 89 14 129 39 39 86 45 136 19z m-277 -83 c44 -39 0 -111 -75 -119
-41 -5 -50 -2 -73 21 -27 27 -27 53 -1 85 32 40 111 47 149 13z m497 -53 c-6
-40 -12 -74 -13 -75 -1 -1 -10 3 -19 10 -17 12 -16 17 9 79 16 36 29 64 31 62
2 -2 -1 -36 -8 -76z m-325 -69 c42 -14 96 1 138 40 l29 25 -4 -25 c-10 -73
-192 -79 -242 -8 -29 41 -17 54 14 16 17 -20 46 -42 65 -48z m-324 -2 c23 -18
42 -23 80 -21 27 1 49 0 49 -3 0 -13 -70 -44 -101 -44 -46 0 -100 50 -79 75
16 19 15 19 51 -7z m-311 -65 c0 -29 -16 -23 -23 9 -2 13 -8 32 -12 43 -6 17
-4 17 14 -4 12 -13 21 -34 21 -48z m-65 26 c8 -25 8 -25 -32 -34 -29 -6 -33
-4 -33 14 0 37 54 55 65 20z m331 -24 c7 -19 14 -41 14 -50 0 -26 -17 -17 -24
13 -3 15 -8 37 -12 50 -10 35 5 26 22 -13z m-50 -10 c3 -12 4 -36 2 -51 -6
-58 -88 -32 -88 27 0 23 47 60 66 52 8 -3 17 -15 20 -28z m-646 -35 c12 -7 12
-13 4 -27 -21 -34 -165 -26 -172 9 -2 9 5 18 15 21 34 9 138 7 153 -3z m-199
-23 c17 -37 63 -58 129 -60 51 -2 62 1 87 24 15 15 33 25 40 22 23 -9 0 -34
-59 -64 -50 -25 -70 -30 -124 -28 -104 3 -177 68 -124 111 29 24 38 23 51 -5z
m1233 -49 c4 -24 13 -64 22 -90 8 -26 14 -64 12 -85 -3 -33 -7 -38 -34 -44
-72 -14 -105 28 -112 141 -4 70 -2 79 15 89 19 10 21 6 26 -46 9 -84 25 -88
19 -5 -5 72 -5 73 39 81 4 0 9 -18 13 -41z m-991 -138 c37 -1 38 -17 6 -69
-38 -60 -47 -53 -48 33 -1 40 2 47 15 42 9 -3 21 -6 27 -6z m189 -80 c-29 -66
-38 -63 -48 14 l-7 46 41 0 40 0 -26 -60z m1105 -1195 c-7 -24 -7 -49 0 -79 8
-36 7 -43 -3 -39 -36 14 -39 153 -4 153 16 0 17 -4 7 -35z m-834 -58 c5 -47 3
-56 -7 -47 -20 15 -30 91 -14 101 16 10 14 14 21 -54z m26 -109 c10 -28 0 -38
-40 -38 -16 0 -19 7 -19 50 l0 51 25 -18 c13 -10 28 -30 34 -45z m-159 -15 c0
-15 -5 -23 -12 -21 -15 5 -38 69 -30 82 8 15 42 -34 42 -61z m55 50 c16 -16
35 -55 35 -74 0 -5 -15 -9 -34 -9 -36 0 -46 12 -46 59 0 44 17 53 45 24z m831
-23 c3 -8 10 -27 14 -42 8 -25 6 -28 -15 -28 -24 0 -45 39 -45 87 0 21 2 22
20 11 11 -7 22 -19 26 -28z m64 25 c7 -8 18 -15 24 -15 11 0 39 -60 32 -68 -3
-2 -22 -6 -44 -9 -35 -5 -40 -3 -45 18 -19 69 1 113 33 74z m-132 -7 c6 -7 13
-30 17 -50 6 -31 4 -38 -9 -38 -18 0 -21 7 -31 63 -6 37 4 48 23 25z"/>
<path d="M2583 1563 c-18 -101 -51 -179 -95 -224 -46 -46 -49 -58 -7 -27 40
30 95 144 109 230 7 37 10 72 8 79 -2 6 -9 -20 -15 -58z"/>
<path d="M1634 2269 c-8 -14 14 -29 33 -22 7 3 13 11 13 19 0 17 -36 19 -46 3z"/>
<path d="M1263 2233 c-23 -8 -14 -33 12 -33 15 0 25 6 25 14 0 16 -19 25 -37
19z"/>
<path d="M1247 2379 c-37 -28 -24 -43 16 -19 18 11 42 20 55 20 12 0 22 5 22
10 0 18 -64 10 -93 -11z"/>
<path d="M1830 2021 c47 -47 103 -114 124 -149 22 -34 41 -60 44 -58 16 17
-197 278 -235 288 -10 3 20 -33 67 -81z"/>
<path d="M1901 1784 c42 -48 86 -121 162 -271 39 -78 73 -140 75 -138 8 7
-150 312 -190 368 -11 15 -19 29 -17 31 2 2 13 8 24 14 19 11 19 11 -5 12 -14
0 -36 3 -50 7 l-25 6 26 -29z"/>
<path d="M2060 1334 c0 -3 5 -15 12 -27 7 -12 22 -58 34 -102 13 -44 23 -73
23 -64 1 8 -8 51 -20 94 -14 57 -17 80 -9 85 8 5 6 9 -5 14 -21 8 -35 8 -35 0z"/>
<path d="M2131 1009 c0 -20 -7 -57 -15 -82 -8 -26 -10 -45 -6 -42 13 8 33 107
27 135 -3 19 -5 17 -6 -11z"/>
</g>
</svg>
