<?xml version="1.0" standalone="no"?>
<!DOCTYPE svg PUBLIC "-//W3C//DTD SVG 20010904//EN"
 "http://www.w3.org/TR/2001/REC-SVG-20010904/DTD/svg10.dtd">
<svg version="1.0" xmlns="http://www.w3.org/2000/svg"
 width="300.000000pt" height="450.000000pt" viewBox="0 0 300.000000 450.000000"
 preserveAspectRatio="xMidYMid meet">
<metadata>
Created by potrace 1.10, written by Peter Selinger 2001-2011
</metadata>
<g transform="translate(0.000000,450.000000) scale(0.100000,-0.100000)"
fill="#000000" stroke="none">
<path d="M613 3326 c-17 -14 -40 -26 -51 -26 -26 0 -52 -36 -52 -72 0 -22 6
-29 28 -34 15 -3 35 -8 45 -11 11 -3 24 3 31 13 12 16 14 16 34 -4 21 -21 19
-32 -5 -32 -8 0 -11 5 -7 13 4 6 -1 5 -11 -5 -9 -9 -14 -21 -11 -27 12 -19 47
-5 68 27 l20 32 -43 20 c-24 11 -61 20 -81 20 -60 0 -59 32 1 50 26 7 42 5 84
-14 29 -13 60 -26 70 -30 23 -7 22 -37 -3 -43 -21 -6 -23 -14 -14 -50 8 -29
32 -29 76 1 46 31 60 35 81 24 10 -5 25 -5 37 2 18 9 20 8 20 -15 0 -23 -3
-25 -22 -20 -18 5 -20 4 -8 -4 13 -9 12 -11 -4 -11 -11 0 -16 -3 -12 -7 12
-12 29 -10 49 7 24 20 22 35 -15 86 -38 53 -113 104 -171 116 -105 21 -102 21
-134 -6z m125 -11 c60 -28 66 -29 57 -15 -10 16 1 11 16 -7 10 -11 10 -14 2
-9 -7 4 -13 5 -13 2 0 -3 14 -12 30 -21 34 -18 36 -23 16 -51 -14 -19 -15 -19
-50 0 -20 10 -38 27 -41 36 -3 10 -30 25 -65 36 -55 17 -58 20 -43 36 21 23
28 23 91 -7z m167 -104 c0 -8 -4 -16 -10 -18 -16 -5 -38 14 -30 26 9 16 40 9
40 -8z"/>
<path d="M464 3188 c-4 -6 -7 -32 -7 -57 0 -57 -22 -170 -36 -184 -6 -6 -11
-18 -11 -27 0 -9 -15 -54 -34 -101 -38 -94 -17 -79 -211 -153 -115 -44 -110
-26 -70 -222 46 -225 65 -304 81 -334 7 -14 44 -57 84 -97 94 -94 113 -102
520 -212 80 -22 163 -41 185 -43 34 -3 40 -7 43 -30 5 -43 -39 -197 -163 -578
-27 -80 -60 -190 -74 -245 l-26 -100 -135 -8 c-74 -4 -147 -6 -162 -4 -31 4
-38 -10 -10 -20 9 -3 66 -26 125 -51 73 -31 111 -42 118 -35 7 7 -5 14 -36 23
-43 12 -45 13 -23 24 13 7 22 19 20 29 -2 14 5 17 42 17 39 0 48 4 70 33 15
19 26 39 26 45 0 7 5 12 10 12 6 0 10 17 9 37 -1 21 3 54 9 73 21 70 50 167
81 265 135 424 151 497 115 532 -22 23 -85 56 -92 49 -3 -3 -1 -6 5 -6 6 0 14
-7 17 -16 6 -15 0 -16 -41 -10 -26 3 -63 14 -83 24 -19 10 -48 19 -65 20 -65
5 -140 28 -139 43 1 12 -13 15 -65 14 -57 0 -66 2 -65 18 1 13 -6 17 -36 17
-52 0 -87 15 -95 39 -3 12 -14 21 -23 21 -14 1 -13 4 5 19 12 10 35 17 52 16
24 -1 39 8 73 43 45 47 39 47 -29 -1 -23 -16 -46 -26 -51 -23 -12 7 -62 -13
-62 -26 0 -15 -26 -9 -43 10 -19 21 -22 54 -7 82 16 30 -7 34 -26 5 -16 -24
-18 -25 -35 -9 -21 18 -18 80 7 173 9 29 13 55 11 58 -3 2 -12 -21 -21 -51 -9
-31 -20 -56 -24 -56 -8 0 -62 258 -62 295 0 10 8 27 17 37 15 17 15 18 1 13
-20 -8 -58 11 -58 28 0 7 4 6 10 -3 8 -13 11 -12 24 5 9 11 16 23 16 28 0 4 8
7 18 7 17 0 79 20 97 31 6 4 25 10 43 14 l33 7 -15 -36 -15 -36 32 1 c23 1 26
3 10 6 -22 4 -22 5 -7 41 8 20 23 46 33 57 19 21 81 173 81 199 0 8 9 17 20
21 16 5 17 9 8 24 -6 10 -8 30 -4 46 9 34 17 27 18 -14 1 -17 7 -36 15 -43 12
-10 13 -7 7 16 -5 19 -2 31 7 37 10 6 11 9 2 9 -8 0 -13 13 -13 30 0 17 5 30
13 30 9 0 9 2 0 8 -22 14 4 36 41 35 20 -1 39 3 42 8 3 5 -7 10 -23 10 -82 4
-98 12 -83 40 12 21 -3 28 -16 7z"/>
<path d="M826 3151 c-10 -11 -15 -24 -12 -30 3 -5 -6 -19 -21 -31 -26 -20 -28
-21 -41 -3 -13 16 -13 15 -7 -13 5 -27 1 -37 -27 -68 -19 -20 -46 -39 -62 -42
l-28 -5 4 68 c3 37 9 77 13 88 6 16 5 18 -5 8 -7 -6 -16 -51 -21 -99 -7 -65
-14 -93 -29 -109 -22 -23 -49 -84 -55 -124 -16 -101 -39 -136 -84 -128 -13 3
-42 -4 -65 -14 l-41 -19 54 0 c61 0 137 31 145 58 2 9 11 51 20 92 21 99 43
133 94 148 30 9 56 29 96 75 30 35 66 69 80 76 20 11 24 20 21 48 -4 44 -8 47
-29 24z"/>
<path d="M2100 3160 c-47 -4 -104 -13 -126 -19 -46 -12 -127 -78 -150 -122
-14 -29 -13 -31 16 -33 22 -2 13 -33 -25 -91 -18 -27 -36 -66 -40 -85 -4 -19
-15 -44 -25 -55 -26 -29 -56 -106 -86 -220 -39 -149 -40 -162 -13 -191 21 -23
87 -49 98 -39 8 8 -29 43 -60 55 -25 11 -29 18 -29 51 0 38 13 58 25 39 3 -5
21 -10 38 -9 l32 1 -39 11 c-21 7 -38 15 -37 20 0 4 1 12 1 17 0 18 25 10 78
-25 62 -42 71 -28 10 15 -90 63 -86 58 -58 80 28 22 40 25 40 10 0 -13 70 -42
87 -36 7 3 13 16 13 29 0 29 -25 65 -37 53 -4 -5 -2 -11 5 -13 15 -6 16 -39 1
-48 -6 -4 -17 2 -25 14 -17 23 -53 28 -72 9 -17 -17 -22 -6 -15 36 5 32 9 37
29 34 24 -3 84 51 84 76 0 6 5 17 11 23 7 7 2 20 -17 42 -14 18 -23 35 -19 39
4 4 10 1 12 -5 10 -27 25 -12 19 18 -5 25 1 39 29 76 30 39 34 52 31 89 -2 24
1 41 5 38 5 -3 9 -1 9 4 0 13 98 64 109 57 5 -3 12 -1 15 3 3 5 28 8 56 7 28
-1 53 2 56 7 3 4 25 6 50 4 86 -9 155 -41 201 -95 13 -15 22 -20 23 -13 0 20
30 -12 30 -33 0 -11 5 -15 14 -12 9 4 16 -4 21 -21 3 -14 13 -31 22 -37 20
-15 27 -103 13 -171 -9 -43 -21 -65 -58 -104 l-47 -50 -75 10 c-41 6 -115 20
-165 31 -49 12 -99 23 -109 25 -11 2 -23 9 -28 16 -6 10 -8 10 -8 0 0 -7 -5
-10 -10 -7 -6 4 -7 12 -4 18 4 7 4 9 0 6 -4 -4 -19 4 -33 17 -28 26 -87 48
-107 41 -17 -7 -26 -75 -16 -119 5 -22 8 -26 9 -11 1 12 8 28 16 37 9 8 12 22
8 32 -6 16 -7 16 -15 -2 -6 -15 -7 -12 -5 11 3 40 39 45 87 12 31 -21 35 -28
34 -65 -1 -41 -25 -82 -48 -82 -6 0 -24 7 -39 15 -15 8 -25 10 -22 5 4 -6 19
-17 34 -25 24 -12 31 -12 48 0 11 8 26 28 33 45 8 20 20 30 34 30 18 0 19 2 6
11 -12 8 -10 9 10 5 14 -4 57 -13 95 -22 39 -8 92 -21 119 -29 27 -8 62 -15
77 -15 18 0 32 -7 39 -19 16 -30 12 -43 -10 -36 -15 5 -21 0 -26 -22 -7 -31
-31 -63 -48 -63 -6 0 -3 7 6 16 13 13 14 21 5 41 -6 14 -16 22 -25 18 -7 -3
-18 -5 -23 -5 -5 0 -9 -11 -9 -24 0 -18 -6 -26 -22 -28 -12 -2 -23 -9 -26 -16
-3 -10 2 -10 21 -1 26 12 57 7 57 -9 0 -4 -24 -19 -54 -33 -30 -13 -53 -26
-51 -27 2 -2 -6 -22 -17 -43 -11 -22 -18 -46 -14 -54 11 -31 -17 -75 -77 -121
-34 -25 -72 -50 -84 -55 -12 -4 -40 -20 -62 -33 -22 -14 -47 -23 -55 -20 -16
6 -93 147 -113 204 -11 34 -11 34 -12 7 -1 -43 67 -192 104 -227 l24 -23 58
35 c32 18 74 40 93 47 44 18 137 106 145 138 9 36 32 13 40 -40 8 -47 43 -127
55 -127 5 0 40 -32 79 -70 39 -39 75 -70 79 -70 13 0 146 -138 163 -169 9 -17
19 -28 23 -24 13 13 5 -49 -10 -79 -9 -18 -11 -27 -4 -23 21 13 28 -15 29
-129 1 -61 4 -124 6 -141 2 -16 9 -84 15 -150 6 -66 13 -140 15 -164 3 -25 0
-50 -6 -57 -9 -10 -8 -15 4 -19 22 -9 18 -54 -7 -67 -31 -16 -31 -16 -6 -43
13 -14 21 -27 18 -30 -3 -3 -29 -8 -57 -12 l-52 -6 35 -36 c34 -35 35 -38 25
-80 -5 -24 -7 -46 -5 -49 10 -9 35 19 29 34 -3 7 7 34 21 58 14 24 26 55 26
68 -1 13 1 48 3 78 2 30 0 87 -5 125 -17 133 -36 370 -37 470 -2 127 -18 239
-44 289 -19 40 -109 130 -183 185 -21 16 -69 58 -106 94 -59 57 -69 72 -88
135 -12 39 -28 76 -36 83 -21 17 -18 27 25 84 28 36 49 54 70 58 31 7 41 16
176 169 51 57 91 114 100 139 21 59 20 170 -2 200 -10 13 -27 41 -38 63 -11
21 -30 46 -43 55 -13 9 -43 33 -68 53 -52 43 -122 77 -173 82 -20 2 -74 0
-121 -4z m-290 -403 c0 -34 -37 -87 -60 -87 -29 0 -25 15 16 55 22 22 33 42
30 51 -3 9 -1 12 4 9 6 -3 10 -16 10 -28z m480 -283 c0 -9 -5 -14 -12 -12 -18
6 -21 28 -4 28 9 0 16 -7 16 -16z"/>
<path d="M856 3072 c-3 -5 -8 -31 -11 -58 -3 -27 -8 -67 -10 -89 -6 -50 7
-135 20 -138 14 -3 42 90 49 164 3 35 9 79 12 97 5 25 3 32 -9 32 -12 0 -15
-12 -15 -52 0 -66 -2 -83 -14 -133 -10 -39 -10 -39 -23 -15 -8 15 -10 33 -5
49 8 24 19 151 14 151 -2 0 -5 -4 -8 -8z"/>
<path d="M1927 2967 c-8 -13 -23 -32 -33 -41 -9 -9 -14 -19 -11 -22 3 -3 14 3
25 14 11 11 22 18 25 16 11 -11 28 26 19 41 -8 15 -11 14 -25 -8z"/>
<path d="M2036 2895 c-13 -20 -14 -25 -2 -25 7 0 16 10 19 22 9 31 2 33 -17 3z"/>
<path d="M2117 2864 c-13 -18 -14 -22 -3 -18 8 3 17 13 20 21 10 25 3 23 -17
-3z"/>
<path d="M461 2866 c2 -2 18 -6 34 -10 22 -5 26 -4 15 4 -14 9 -59 15 -49 6z"/>
<path d="M1916 2781 c-8 -13 3 -19 51 -27 51 -8 67 11 17 20 -19 4 -41 9 -49
12 -7 3 -16 1 -19 -5z"/>
<path d="M1914 2689 c-10 -16 18 -30 34 -17 11 9 11 13 0 19 -18 12 -26 11
-34 -2z"/>
<path d="M540 2625 c0 -19 -4 -35 -9 -35 -10 0 -4 -69 8 -110 5 -14 5 -35 0
-48 -5 -12 -5 -22 0 -22 4 0 6 -23 3 -51 -3 -35 -1 -50 6 -46 14 9 22 -16 11
-34 -5 -8 -9 -20 -9 -26 0 -23 15 -13 27 16 8 24 8 32 -5 45 -16 16 -23 98
-21 264 0 45 -2 82 -5 82 -3 0 -6 -16 -6 -35z"/>
<path d="M256 2534 c-15 -14 -22 -34 -12 -34 2 0 11 11 20 25 19 28 15 33 -8
9z"/>
<path d="M303 2463 c4 -4 -6 -12 -23 -19 -16 -7 -30 -18 -30 -24 0 -16 15 -12
43 13 29 24 34 37 15 37 -6 0 -8 -3 -5 -7z"/>
<path d="M385 2274 c-65 -62 -115 -114 -109 -114 6 0 21 11 34 25 13 14 29 25
37 25 7 0 13 6 13 13 0 8 19 32 43 54 50 47 113 113 106 112 -2 0 -58 -52
-124 -115z"/>
<path d="M284 2327 c-35 -52 -36 -57 -19 -57 9 0 13 4 10 10 -3 5 4 23 16 40
13 16 21 32 18 34 -2 3 -14 -10 -25 -27z"/>
<path d="M1308 2321 c23 -11 42 -25 42 -31 0 -5 11 -10 25 -10 25 0 35 -23 15
-35 -5 -3 -10 -13 -10 -22 0 -13 3 -13 15 -3 8 7 15 19 15 27 0 8 4 12 9 9 4
-3 17 1 27 9 10 9 15 14 9 13 -16 -3 -99 24 -115 38 -8 7 -28 15 -45 19 -24 5
-22 2 13 -14z"/>
<path d="M1215 2320 c-3 -5 3 -10 14 -10 11 0 23 5 26 10 3 6 -3 10 -14 10
-11 0 -23 -4 -26 -10z"/>
<path d="M750 2295 c-23 -13 -23 -14 -4 -15 11 0 24 4 30 9 5 5 20 11 34 14
22 4 22 4 -5 5 -16 1 -41 -5 -55 -13z"/>
<path d="M989 2293 c-13 -16 -12 -17 4 -4 15 12 17 10 19 -25 l1 -39 4 35 c3
19 10 38 16 42 8 5 4 8 -9 8 -12 0 -28 -8 -35 -17z"/>
<path d="M1116 2302 c-3 -5 10 -8 29 -8 18 1 31 4 28 9 -6 10 -51 9 -57 -1z"/>
<path d="M618 2293 c-20 -5 -24 -18 -9 -28 5 -3 8 -22 6 -43 l-5 -37 9 35 c5
19 14 36 20 38 6 2 11 10 11 19 0 9 6 12 18 9 9 -3 24 -1 32 4 11 7 4 9 -25 9
-22 -1 -48 -3 -57 -6z"/>
<path d="M862 2280 c7 -11 16 -20 20 -20 5 0 3 9 -4 20 -7 11 -16 20 -20 20
-5 0 -3 -9 4 -20z"/>
<path d="M1515 2290 c-28 -4 -38 -8 -22 -8 24 -2 27 -5 21 -28 -5 -19 -4 -25
5 -20 6 4 11 13 11 20 0 13 33 30 75 39 31 7 -34 5 -90 -3z"/>
<path d="M1772 2274 c3 -17 21 -21 26 -6 1 5 -4 12 -13 16 -11 4 -15 1 -13
-10z"/>
<path d="M1327 2273 c-11 -19 -25 -83 -18 -87 4 -3 14 15 23 40 8 24 12 47 8
49 -5 3 -11 2 -13 -2z"/>
<path d="M1695 2248 c-4 -18 -14 -41 -23 -51 -14 -16 -14 -17 0 -12 11 5 19
-2 25 -20 7 -21 9 -12 11 44 2 77 -2 90 -13 39z"/>
<path d="M410 2224 c-52 -27 -34 -31 24 -5 22 10 36 20 30 23 -5 3 -29 -5 -54
-18z"/>
<path d="M1447 2223 c-11 -13 -17 -26 -14 -29 2 -3 12 7 21 22 23 33 17 39 -7
7z"/>
<path d="M445 2140 c-81 -82 -81 -94 1 -18 47 45 83 88 72 88 -2 0 -35 -31
-73 -70z"/>
<path d="M765 2140 c8 -22 19 -48 24 -58 9 -15 10 -14 11 8 0 23 -33 90 -44
90 -3 0 1 -18 9 -40z"/>
<path d="M949 2148 c4 -28 6 -29 9 -9 2 13 0 27 -5 32 -6 6 -7 -3 -4 -23z"/>
<path d="M1496 2172 c-3 -5 19 -20 48 -35 56 -29 82 -34 70 -16 -4 8 0 9 15 4
11 -3 26 -3 32 1 19 11 -12 24 -59 24 -24 0 -56 7 -72 15 -16 8 -31 11 -34 7z"/>
<path d="M1031 2140 c-4 -38 -9 -204 -7 -195 18 55 26 126 18 165 -6 25 -10
38 -11 30z"/>
<path d="M2125 2117 c-10 -18 -24 -36 -32 -40 -21 -13 -16 -29 6 -18 18 10 57
79 49 87 -2 2 -12 -11 -23 -29z"/>
<path d="M856 2115 c15 -63 64 -196 82 -223 11 -15 23 -37 27 -50 4 -13 9 -22
11 -19 6 5 -65 209 -77 222 -5 5 -9 18 -9 30 0 11 -9 31 -20 45 l-21 25 7 -30z"/>
<path d="M310 2090 c-13 -9 -13 -10 0 -10 8 0 22 5 30 10 13 9 13 10 0 10 -8
0 -22 -5 -30 -10z"/>
<path d="M1745 2070 c-8 -13 26 -141 35 -135 5 3 4 20 -1 38 -15 54 -11 64 14
33 17 -21 25 -25 28 -15 5 16 -68 92 -76 79z"/>
<path d="M1640 2021 c0 -5 6 -13 13 -19 7 -6 28 -42 46 -80 18 -38 39 -69 47
-69 15 0 -10 50 -68 135 -29 42 -38 50 -38 33z"/>
<path d="M2097 2024 c-3 -4 -2 -17 3 -30 9 -22 7 -25 -18 -30 -15 -4 -54 -23
-87 -44 -33 -21 -92 -56 -131 -78 -71 -41 -161 -132 -130 -132 8 0 21 7 28 16
35 45 80 82 132 107 31 16 79 46 106 68 49 38 101 52 115 29 3 -5 11 -10 17
-10 6 0 3 9 -7 20 -17 19 -17 22 -3 36 14 14 18 14 46 0 17 -9 42 -16 56 -16
46 0 39 -32 -9 -42 -18 -4 -18 -4 3 -10 19 -5 27 0 43 25 26 44 25 47 -21 47
-23 0 -61 11 -89 25 -27 13 -51 22 -54 19z"/>
<path d="M1895 2005 c-28 -9 -33 -14 -17 -14 24 -1 29 -20 10 -39 -22 -22 1
-24 31 -2 20 14 31 30 31 46 0 27 0 27 -55 9z"/>
<path d="M1025 1856 c-3 -9 -7 -23 -10 -31 -2 -8 0 -17 4 -20 5 -2 11 9 15 27
7 33 0 52 -9 24z"/>
<path d="M2340 1671 c0 -4 9 -20 21 -35 11 -14 23 -45 26 -69 7 -60 15 -61 12
-1 -1 28 1 55 4 61 4 7 -6 21 -22 32 -32 23 -41 26 -41 12z"/>
<path d="M2300 1570 c-10 -19 -9 -20 17 -14 35 8 37 10 28 23 -10 18 -33 13
-45 -9z"/>
<path d="M2518 1546 c-14 -14 -29 -22 -32 -19 -3 4 -6 2 -6 -4 0 -5 3 -12 6
-16 7 -6 83 44 84 56 0 15 -26 6 -52 -17z"/>
<path d="M2338 1513 c-16 -16 -28 -38 -28 -50 0 -51 -62 -260 -90 -306 -26
-42 -30 -57 -29 -115 0 -37 4 -93 8 -124 4 -32 4 -58 1 -58 -3 0 -11 -13 -17
-30 -11 -28 -10 -30 14 -30 18 0 28 8 36 30 8 22 21 33 46 40 19 5 38 7 42 4
5 -3 25 -2 45 2 47 9 29 19 -48 28 -53 7 -57 6 -52 -11 5 -13 -1 -10 -22 10
-26 25 -29 33 -28 95 0 61 36 200 87 337 7 17 12 35 12 40 2 43 20 99 37 115
11 10 18 26 16 35 -2 13 -8 11 -30 -12z"/>
<path d="M1996 1454 c-4 -10 -14 -14 -26 -11 -16 4 -20 0 -20 -19 0 -13 9 -29
19 -36 18 -11 19 -20 14 -100 -4 -59 -2 -88 5 -88 6 0 35 27 64 60 41 45 59
58 74 54 26 -7 55 23 35 36 -8 4 -11 16 -7 27 5 15 -7 25 -69 56 -42 20 -77
37 -79 37 -2 0 -7 -7 -10 -16z m67 -34 c6 -10 17 -16 24 -13 18 7 45 -17 39
-33 -3 -8 4 -19 15 -25 15 -8 18 -14 10 -22 -8 -8 -16 -4 -31 13 -18 21 -20
21 -21 4 0 -11 -3 -13 -6 -6 -2 6 -9 10 -14 6 -5 -3 -9 0 -9 5 0 6 5 11 11 11
5 0 8 4 4 9 -3 5 0 13 6 17 8 4 9 3 5 -4 -4 -7 -2 -12 4 -12 7 0 10 6 7 13 -2
6 -10 11 -16 9 -6 -1 -25 5 -41 13 -34 18 -40 18 -40 5 0 -5 7 -10 15 -10 10
0 15 -10 16 -27 0 -27 1 -27 9 -5 12 28 24 29 17 0 -4 -12 -2 -27 3 -33 6 -8
-2 -23 -25 -45 l-35 -34 0 52 c0 29 5 52 10 52 6 0 10 5 10 11 0 6 -7 9 -15 6
-22 -9 -28 10 -14 42 14 31 42 32 62 1z"/>
<path d="M2413 1294 l-28 -25 33 22 c17 13 32 24 32 26 0 8 -11 1 -37 -23z"/>
<path d="M2075 1190 c-3 -5 1 -10 9 -10 8 0 18 5 21 10 3 6 -1 10 -9 10 -8 0
-18 -4 -21 -10z"/>
<path d="M1820 1172 c0 -5 11 -12 25 -14 14 -3 25 -1 25 3 0 5 -4 9 -9 9 -5 0
-16 3 -25 6 -9 3 -16 2 -16 -4z"/>
<path d="M1745 1140 c13 -62 55 -189 65 -195 7 -4 7 2 1 17 -5 13 -19 61 -31
108 -23 86 -49 138 -35 70z"/>
<path d="M1907 1133 c-14 -13 -6 -23 19 -23 22 0 25 2 14 15 -14 16 -23 19
-33 8z"/>
<path d="M2465 950 c17 -4 47 -15 68 -24 20 -9 37 -13 37 -8 0 14 -69 42 -103
41 l-32 -1 30 -8z"/>
<path d="M2437 883 c-10 -9 60 -43 88 -43 14 0 25 5 25 10 0 6 -10 10 -22 10
-19 0 -20 2 -8 11 11 7 6 9 -20 7 -19 -1 -40 1 -46 5 -6 3 -14 4 -17 0z"/>
<path d="M1340 838 c0 -6 3 -9 6 -5 4 3 20 -1 37 -10 l31 -16 -23 -18 c-12
-10 -21 -26 -19 -36 2 -13 9 -7 27 22 l23 39 -22 18 c-25 20 -60 24 -60 6z"/>
<path d="M1095 820 l-40 -7 45 0 c25 -1 74 3 110 7 l65 7 -70 0 c-38 0 -88 -3
-110 -7z"/>
<path d="M1965 819 c-16 -4 -55 -7 -85 -8 -30 -1 -86 -8 -125 -14 -67 -12 -63
-12 90 -10 147 2 160 4 157 20 -5 22 -1 21 -37 12z"/>
<path d="M1438 808 c8 -8 40 -13 88 -13 87 -1 71 9 -31 19 -57 6 -68 5 -57 -6z"/>
<path d="M875 790 c-5 -8 3 -11 28 -9 20 2 39 0 43 -3 4 -4 15 -3 25 2 11 7
26 6 41 0 23 -10 23 -11 1 -6 -29 5 -36 -6 -19 -30 14 -18 15 -18 34 -1 13 12
34 18 59 17 63 -3 61 2 -7 17 -95 21 -196 28 -205 13z"/>
<path d="M1633 793 c9 -2 25 -2 35 0 9 3 1 5 -18 5 -19 0 -27 -2 -17 -5z"/>
<path d="M760 780 c-20 -6 -13 -8 28 -9 29 -1 62 -6 73 -11 24 -13 25 -2 2 16
-20 15 -64 16 -103 4z"/>
<path d="M1164 768 c-3 -4 13 -8 33 -10 56 -5 163 3 163 11 0 9 -190 8 -196
-1z"/>
<path d="M2029 769 c-9 -5 13 -9 56 -9 48 0 65 3 55 10 -18 11 -93 11 -111 -1z"/>
<path d="M2245 761 c3 -5 19 -12 35 -16 38 -8 38 -16 -2 -40 -39 -22 -83 -63
-76 -70 7 -7 147 87 172 114 l19 21 -77 0 c-45 0 -75 -4 -71 -9z"/>
<path d="M1020 713 c0 -5 9 -18 20 -28 11 -10 20 -14 20 -8 0 5 -9 18 -20 28
-11 10 -20 14 -20 8z"/>
<path d="M653 597 c-12 -34 -25 -70 -28 -80 -6 -13 -3 -16 9 -11 9 3 16 16 16
28 0 12 7 44 16 70 9 26 15 49 12 51 -2 2 -13 -24 -25 -58z"/>
<path d="M1220 650 c0 -16 17 -20 28 -7 8 10 6 13 -9 14 -10 1 -19 -2 -19 -7z"/>
<path d="M2380 630 c0 -19 3 -21 12 -12 9 9 9 15 0 24 -9 9 -12 7 -12 -12z"/>
<path d="M2525 610 c4 -13 2 -20 -7 -20 -10 0 -10 -2 1 -9 10 -7 4 -19 -29
-55 -36 -39 -45 -44 -58 -34 -12 11 -21 5 -53 -31 -22 -24 -39 -47 -39 -51 0
-5 26 7 58 26 54 32 201 169 191 177 -2 2 -19 7 -37 10 -30 6 -33 5 -27 -13z"/>
<path d="M1187 598 c-21 -11 -36 -22 -33 -25 5 -6 63 24 71 37 3 5 5 9 3 9 -2
-1 -20 -11 -41 -21z"/>
<path d="M2210 600 c0 -5 5 -10 10 -10 6 0 10 -4 10 -10 0 -5 9 -19 20 -30 19
-19 21 -61 11 -182 -1 -3 -17 -15 -36 -27 -19 -11 -34 -26 -33 -33 2 -6 -12
-14 -32 -18 -19 -3 -44 -12 -56 -19 -17 -12 -26 -10 -65 10 -67 37 -101 61
-130 93 -22 25 -24 32 -13 44 16 16 19 42 4 42 -5 0 -10 -7 -10 -15 0 -8 -9
-15 -20 -15 -11 0 -20 4 -20 9 0 5 -6 9 -12 8 -33 -1 -48 4 -48 17 0 16 27 29
41 20 5 -3 9 0 9 5 0 6 -10 11 -23 11 -13 0 -29 6 -37 13 -12 10 -12 9 -1 -5
12 -15 11 -18 -3 -18 -12 0 -16 -7 -14 -22 2 -15 23 -35 63 -59 33 -20 67 -48
76 -63 21 -34 69 -67 132 -91 47 -18 50 -18 100 0 29 10 64 31 79 46 15 16 34
29 42 29 8 0 16 6 19 13 2 6 7 9 11 5 8 -7 -9 -41 -36 -73 -9 -11 -17 -24 -17
-30 0 -5 -19 -14 -43 -19 -51 -11 -52 -11 -43 -25 4 -8 13 -6 28 4 30 21 40
19 32 -6 -5 -15 -4 -19 4 -15 17 11 13 -10 -9 -51 -19 -36 -29 -82 -12 -57 4
6 15 11 25 11 19 0 19 -1 1 -64 -6 -22 9 -33 20 -15 3 5 8 60 12 123 6 112 7
115 40 149 19 20 34 41 34 47 0 6 7 13 15 17 8 3 15 11 15 17 0 8 -4 8 -15 -1
-13 -10 -14 -3 -13 53 2 56 -2 70 -26 108 -47 73 -86 108 -86 79z m95 -197
c-2 -10 -4 -21 -4 -25 -2 -14 -21 -9 -21 5 0 11 19 37 26 37 1 0 1 -8 -1 -17z"/>
<path d="M2050 564 c0 -12 3 -14 13 -6 7 6 30 8 51 5 26 -3 36 -2 32 6 -4 6
-27 11 -52 11 -34 0 -44 -4 -44 -16z"/>
<path d="M2107 530 c-5 -21 -47 -29 -47 -9 0 5 -4 7 -10 4 -21 -13 -8 -23 40
-29 46 -6 100 -38 82 -49 -4 -2 0 -2 8 1 8 2 22 5 30 5 22 0 30 17 28 62 -1
30 -2 33 -5 12 -6 -37 -29 -47 -78 -33 -33 10 -39 16 -37 34 4 27 -4 29 -11 2z"/>
<path d="M1860 491 c8 -6 35 -11 60 -11 25 0 61 -4 79 -10 39 -11 52 -7 24 8
-26 14 -182 26 -163 13z"/>
<path d="M601 440 c-6 -28 -22 -85 -36 -128 -34 -105 -85 -306 -79 -312 9 -9
23 25 34 80 9 47 33 134 70 255 5 17 12 47 16 68 3 20 10 37 15 37 12 0 12 37
0 44 -5 4 -14 -17 -20 -44z"/>
<path d="M987 389 c-22 -39 -16 -50 7 -14 9 14 23 25 31 25 8 0 15 5 15 10 0
22 -36 8 -53 -21z"/>
<path d="M1441 404 c13 -16 29 -19 29 -5 0 5 -9 11 -21 14 -16 4 -18 3 -8 -9z"/>
<path d="M1970 380 c8 -5 22 -10 30 -10 13 0 13 1 0 10 -8 5 -22 10 -30 10
-13 0 -13 -1 0 -10z"/>
<path d="M950 263 c-13 -15 -12 -16 4 -10 10 4 25 7 34 7 15 0 15 2 2 10 -20
13 -22 12 -40 -7z"/>
<path d="M1388 78 c9 -9 15 -9 24 0 9 9 7 12 -12 12 -19 0 -21 -3 -12 -12z"/>
<path d="M1932 73 c-16 -31 -23 -73 -12 -73 9 0 13 12 25 73 2 9 1 17 -1 17
-2 0 -7 -8 -12 -17z"/>
</g>
</svg>
